<svg id="fooko" width="800" height="800" viewBox="0 0 211.67 211.67" xmlns="http://www.w3.org/2000/svg" xmlns:xlink="http://www.w3.org/1999/xlink"><defs><linearGradient id="muffler"><stop stop-color="#644b2e" offset="0"/><stop stop-color="#b38b5a" offset=".11306"/><stop stop-color="#ebe0d3" offset=".36935"/><stop stop-color="#b18856" offset=".64963"/><stop stop-color="#473621" offset="1"/></linearGradient><linearGradient id="coat"><stop stop-color="#1c304d" offset="0"/><stop stop-color="#2c4c7c" offset="1"/></linearGradient><linearGradient id="a"><stop stop-color="#16bcaa" offset="0"/><stop stop-color="#8ef2e7" offset=".242"/><stop stop-color="#0d756b" offset=".605"/><stop stop-color="#00312d" offset="1"/></linearGradient><linearGradient id="eye"><stop stop-color="#18ffff" offset="0"/><stop stop-color="#1a237e" offset=".58065"/><stop stop-color="#080b29" offset="1"/></linearGradient><filter id="r" color-interpolation-filters="sRGB"><feGaussianBlur result="blur" stdDeviation="0.11 0.11"/></filter><linearGradient id="d" x1="85.99" x2="85.99" y1="70.115" y2="63.765" gradientTransform="translate(-.50474 .33649)" gradientUnits="userSpaceOnUse" xlink:href="#eye"/><clipPath id="t"><path d="M80.433 74.613c1.6208.74905 3.282.88383 5.0271 1.0583 1.6715.04646 3.0073-.4195 4.4979-1.0583 1.8666-.87968 2.9104-2.6458 2.9104-2.6458s2.8173-2.9996 3.6062-7.2476c-2.033-4.4604-8.0244-3.7333-8.0244-3.7333s-9.0767-.18882-10.928 5.4246c0 0-.52102 1.5703-.18725 4.4832.39867 1.9001 1.3846 2.9372 3.0977 3.7189z" fill="#fef7f2" stroke="#004339" stroke-linecap="round" stroke-linejoin="round" stroke-width=".292"/></clipPath><clipPath id="s"><path d="M80.433 74.613c1.6208.74905 3.282.88383 5.0271 1.0583 1.6715.04646 3.0073-.4195 4.4979-1.0583 1.8666-.87968 2.9104-2.6458 2.9104-2.6458s2.8173-2.9996 3.6062-7.2476c-2.033-4.4604-8.0244-3.7333-8.0244-3.7333s-9.0767-.18882-10.928 5.4246c0 0-.52102 1.5703-.18725 4.4832.39867 1.9001 1.3846 2.9372 3.0977 3.7189z" fill="#fef7f2" stroke="#004339" stroke-linecap="round" stroke-linejoin="round" stroke-width=".292"/></clipPath><filter id="q" color-interpolation-filters="sRGB"><feGaussianBlur result="blur" stdDeviation="0.11 0.11"/></filter><linearGradient id="f" x1="63.5" x2="63.5" y1="127" y2="2.6458" gradientUnits="userSpaceOnUse" xlink:href="#a"/><linearGradient id="o" x1="62.177" x2="67.469" y1="103.19" y2="-23.812" gradientUnits="userSpaceOnUse" xlink:href="#a"/><linearGradient id="n" x1="62.177" x2="78.052" y1="103.19" y2="-26.458" gradientUnits="userSpaceOnUse" xlink:href="#a"/><linearGradient id="e" x1="62.177" x2="59.531" y1="103.19" y2="-23.812" gradientUnits="userSpaceOnUse" xlink:href="#a"/><linearGradient id="c" x1="62.177" x2="64.823" y1="103.19" y2="-23.812" gradientUnits="userSpaceOnUse" xlink:href="#a"/><linearGradient id="m" x1="62.177" x2="66.72" y1="103.19" y2="-35.038" gradientTransform="translate(.7276 8.2021)" gradientUnits="userSpaceOnUse" xlink:href="#a"/><linearGradient id="p" x1="37.035" x2="44.921" y1="46.316" y2="48.429" gradientUnits="userSpaceOnUse"><stop stop-color="#419ea9" offset="0"/><stop stop-color="#aafbee" offset=".25776"/><stop stop-color="#419ea9" offset=".55465"/><stop stop-color="#00312d" offset="1"/></linearGradient><radialGradient id="h" cx="36.391" cy="41.827" r="2.0139" gradientTransform="translate(-17.326 -19.914) scale(1.4761)" gradientUnits="userSpaceOnUse"><stop stop-color="#fff" offset="0"/><stop stop-color="#aafbee" offset=".1592"/><stop stop-color="#1be5da" offset=".52875"/><stop stop-color="#00312d" offset="1"/></radialGradient><radialGradient id="g" cx="37.192" cy="42.382" r="6.0341" gradientTransform="matrix(1.3672 0 0 1.5287 -13.818 -22.442)" gradientUnits="userSpaceOnUse"><stop stop-color="#1be5da" offset="0"/><stop stop-color="#aafbee" offset=".48441"/><stop stop-color="#1be5da" offset=".67887"/><stop stop-color="#00312d" offset="1"/></radialGradient><linearGradient id="b" x1="62.177" x2="62.177" y1="103.19" y2="-29.104" gradientUnits="userSpaceOnUse" xlink:href="#a"/><linearGradient id="l" x1="63.765" x2="55.352" y1="158.68" y2="116.72" gradientUnits="userSpaceOnUse" xlink:href="#muffler"/><linearGradient id="k" x1="87.308" x2="78.028" y1="175.25" y2="122.55" gradientUnits="userSpaceOnUse" xlink:href="#muffler"/><linearGradient id="j" x1="64.546" x2="64.546" y1="181.5" y2="157.55" gradientUnits="userSpaceOnUse" xlink:href="#coat"/><linearGradient id="i" x1="61.056" x2="61.056" y1="180.22" y2="152.53" gradientUnits="userSpaceOnUse" xlink:href="#coat"/></defs><g transform="translate(42.333 18.521)" fill="url(#f)" stroke-miterlimit="30" stroke-width=".39687"><path d="M72.19 118.13s2.6192 7.2965 5.7062 9.9157c0 0 1.2717-8.8653 8.7552-16.255 0 9.525 3.175 12.039 3.175 12.039-.92604-8.8635 5.2917-18.389 5.2917-18.389.52917 3.9688 3.7321 10.912 3.7321 10.912 2.2316-24.487 11.038-33.395 14.219-59.775.13229-23.019-9.5898-38.62-9.5898-38.62-2.3967-2.9797-11.938-7.0546-16.183-8.6556-4.4251-1.6687-4.8713-8.1061-10.34-8.1736-22.357.25736-49.923 14.589-61.641 31.689 0 0-1.8709 5.5191-2.058 16.651 2.058 28.625 10.851 42.469 11.974 66.416 3.4611-5.2385 5.0514-11.132 5.0514-11.132s9.3544 6.4546 12.067 16.838l-.56127-9.7286s6.1739 9.1674 14.78 14.967c0 0-2.3386-4.0224-1.2161-10.103 0 0 3.7827 7.5651 13.44 11.931 0 0-.83536-7.3525 3.398-10.528z"/><path d="M28.225 82.314l-2.7587-6.9741 3.638 2.8443s-.035-22.292 19.844-35.851l29.104-.000001c19.879 13.559 19.844 35.851 19.844 35.851l3.638-2.8443-2.7587 6.9741 6.7844-10.53-1.0893 10.177c7.4745-13.229 8.5983-25.387 8.5983-25.387-3.1805 26.38-13.071 33.914-14.741 52.04 0 0-2.4545-5.6273-2.0483-10.438 0 0-5.0952 6.1508-6.6013 16.511 0 0-1.7718-5.507-.92994-11.29-7.7345 6.9359-10.72 19.155-10.72 19.155-3.087-2.6192-3.9289-11.88-3.9289-11.88-7.1332 6.5426-6.7656 13.334-6.7656 13.334-9.6573-4.3656-11.85-15.485-11.85-15.485-3.3676 5.9868-2.2451 12.067-2.2451 12.067-8.6061-5.7998-14.125-19.083-14.125-19.083l1.029 11.693c-2.7128-10.383-11.319-18.428-11.319-18.428s-.09354 10.383-2.5257 14.125c-4.3966-23.105-10.983-30.806-13.041-59.43 1.4716 12.898 8.1885 25.18 14.968 32.85z" fill="#013733" fill-opacity=".5098"/><path d="M78.729 19.675s4.4711-1.9015 8.0707-5.5875c.09377-2.5349-4.287-4.9183-4.287-4.9183 3.6702 4.9063-3.7837 10.506-3.7837 10.506zM61.937 5.196s-7.0708.44973-19.721 6.5181c-8.2038 6.6158-14.986 17.419-14.986 17.419 15.076-16.755 34.707-23.937 34.707-23.937zM84.04 9.5787s7.572 1.0939 17.771 8.2938c4.9093 7.3388 5.5753 18.718 5.5753 18.718-6.0976-18.065-23.347-27.012-23.347-27.012zm-1.7206-.9528c-4.724-.56127-16.277 11.225-16.277 11.225 1.1693-11.88 10.758-17.586 10.758-17.586 4.0224 1.4499 5.5191 6.361 5.5191 6.361zm-8.4846-5.8843s-6.5893.82786-16.328 6.2183c-5.271 5.4864-7.5506 13.983-7.5506 13.983 7.8953-13.496 23.878-20.202 23.878-20.202z" fill="#012b27" fill-opacity=".41546"/><path d="M72.19 118.13s2.6192 7.2965 5.7062 9.9157c0 0 1.2717-8.8653 8.7552-16.255 0 9.525 3.175 12.039 3.175 12.039-.92604-8.8635 5.2917-18.389 5.2917-18.389.52917 3.9688 3.7321 10.912 3.7321 10.912 2.2316-24.487 11.038-33.395 14.219-59.775.1323-23.019-9.5898-38.62-9.5898-38.62-2.3967-2.9797-11.938-7.0546-16.183-8.6556-4.4251-1.6687-4.8713-8.1061-10.34-8.1736-22.357.25736-49.923 14.589-61.641 31.689 0 0-1.8709 5.5191-2.058 16.651 2.058 28.625 10.851 42.469 11.974 66.416 3.4611-5.2385 5.0514-11.132 5.0514-11.132s9.3544 6.4546 12.067 16.838l-.56127-9.7286s6.1739 9.1674 14.78 14.967c0 0-2.3386-4.0224-1.2161-10.103 0 0 3.7827 7.5651 13.44 11.931 0 0-.83537-7.3526 3.398-10.528z" fill="none" stroke="#004339"/><path d="M103.58 78.595l-2.2435 1.6462 1.2402-3.2103-4.655 4.1485 2.6898-1.4293-2.1746 5.4848m-.22584-7.6749l1.7456-3.2355-3.1614.48616 6.1065-2.0609-2.5475 2.8142 2.0046-.22884m7.2066-34.304c4.5054 13.438-.54052 26.241-.54052 26.241s.68886-.54085-.98749-5.4658c0 0 .21334 2.1389-4.5574 8.5934.58397-4.0028-.1472-9.2497-.1472-9.2497s-.94327 1.5406-.80297 5.0018c-2.2451-4.7979-1.828-10.245-1.828-10.245-.79375 1.1245-.66535 4.602-.66535 4.602-2.1646-7.5929 1.2643-10.359.54716-14.203 2.2055 4.4815 1.6135 6.0154 1.6135 6.0154s3.159-1.8808 4.2173-7.5032c.79375 1.5875.77341 4.5429.77341 4.5429s2.1791-4.6265 2.3775-8.3307z" fill="#c9f3ef" fill-opacity=".75686"/></g><path d="M89.958 142.871c7.9375-2.6458 26.458 0 31.75 0v15.875h-31.75z" fill="#9e8f6e" stroke="#004339" stroke-linejoin="round" stroke-width=".39687"/><path d="M29.104 171.98s-2.6458-26.458 2.6458-34.396c2.6458-2.6458 21.167-2.6458 26.458-7.9375h10.583c5.2917 5.2917 23.812 5.2917 26.458 7.9375 5.2917 7.9375 2.6458 34.396 2.6458 34.396z" fill="#fef7f2" transform="translate(42.333 18.521)"/><path d="M74.083 156.101c2.6458-2.6458 21.167-2.6458 26.458-7.9375m10.583 0c5.2917 5.2917 23.812 5.2917 26.458 7.9375m-35.983 4.7625s-2.3945-2.2717-4.7332-2.7394c0 0-11.218-.354-13.229-2.6458m26.429 5.3852s2.3945-2.2717 4.7332-2.7394c0 0 11.218-.354 13.229-2.6458" fill="none" stroke="#004339" stroke-linecap="round" stroke-linejoin="round" stroke-width=".39687"/><path d="M92.999 136.49c5.511-2.4716 16.308 2.5306 15.429 12.854l1.2904 16.042c-1.2399 11.887-6.5316 14.533-13.509 4.348l-3.7637-19.028s-1.5705-10.782.55238-14.216z" fill="#fef7f2" transform="matrix(-.99706 .07658 .07658 .99706 159.69 12.211)"/><path d="M75.67338198 155.04367332c-5.81466106-.51853816-14.16434086 5.12159076-12.65766812 14.37043755l-.05815799 16.09365148m13.80224034 3.3007382L79.05532377 169.54823" fill="none" stroke="#004339" stroke-linecap="round" stroke-linejoin="round" stroke-width=".39687"/><path d="M92.999 136.49c5.511-2.4716 16.308 2.5306 15.429 12.854l1.2904 16.042c-1.2399 11.887-6.5316 14.533-13.509 4.348l-3.7637-19.028s-1.5705-10.782.55238-14.216z" fill="#fef7f2" transform="rotate(4.392 -133.23 683.89)"/><path d="M135.99564877 155.04347218c5.81468184-.51854559 14.16439757 5.12159604 12.6577281 14.37047811l.05817351 16.09371033m-13.80228771 3.30076339l-2.29555428-19.26033884" fill="none" stroke="#004339" stroke-linecap="round" stroke-linejoin="round" stroke-width=".39687"/><path d="M72.76 134.94c-1.3229-2.6458-1.3229-15.875 1.3229-18.521h-21.167c2.6458 2.6458 2.6458 15.875 1.3229 18.521 1.3229 2.6458 9.2604 3.1337 9.2604 3.1337s7.9375-.48791 9.2604-3.1337z" fill="#fef7f2" transform="translate(42.333 18.521)"/><path d="M71.934 125.68c.16536-3.9688.82682-7.9375 2.1497-9.2604h-21.167c1.3229 1.3229 1.9844 5.2917 2.1497 9.2604 3.1419 6.6146 8.4336 7.9375 8.4336 7.9375s5.2917-1.3229 8.4336-7.9375z" fill="#f8e2d0" transform="translate(42.333 18.521)"/><path d="M115.093 153.461c-1.3229-2.6458-1.3229-15.875 1.3229-18.521h-21.167c2.6458 2.6458 2.6458 15.875 1.3229 18.521" fill="none" stroke="#004339" stroke-linecap="round" stroke-width=".39687"/><path d="M83.873 137.12v35.255l-39.621.18709v-35.111z" fill="#fcf2d8" transform="translate(42.333 18.521)"/><path d="M87.338 157.541c.33073 5.2255-15.623 19.405-8.1481 32.7m12.944-28.455c-.79375 6.813-14.016 16.663-5.5489 29.297m10.747-26.775c.13229 6.2177-7.735 20.37-.78972 26.587m28.519-34.021c.66146 9.7896 15.036 20.594 7.6933 33.691m-9.6045-31.864c-.39688 8.0698 10.2 22.669 3.0561 32.194m-9.3173-28.689c.13229 9.1943 10.839 19.826 1.6444 28.624m-8.2177-26.367c.7276 9.5912 6.4318 19.421-.11667 26.367m-6.6388-25.294c1.5214 8.8635-.63722 13.124.68569 25.89" fill="none" stroke="#004339" stroke-width=".26458"/><g fill="url(#i)" stroke="#004339" stroke-width=".39687" transform="translate(42.333 18.521)"><path d="M86.844 133.79c7.5965 2.8498 13.918 2.0028 18.989 4.5837 4.4079 15.674 1.9494 23.838 1.9791 28.31l.7597 10.187-21.264-1.6243zM40.156 133.79c-7.5965 2.8498-13.918 2.0028-18.99 4.5837-4.4079 15.674-1.9494 23.838-1.9791 28.31l-.7597 10.187 21.264-1.6243z"/><path d="M44.885 130.95c-3.8364 2.4784-11.797 3.897-11.797 3.897.2037 2.9197 5.4988 7.6442 5.4988 7.6442l6.5269-4.8231zm38.68.42525c3.8364 2.4784 10.957 3.753 10.957 3.753-.2037 2.9197-5.4988 7.6369-5.4988 7.6369l-5.9926-5.617z"/></g><path d="M47.625 124.35c2.1167 10.716 13.097 10.98 13.097 10.98 8.6651-.26458 19.711-5.0734 18.653-10.98 5.1594 1.1245 5.2917 2.6458 5.2917 2.6458.59531 5.2255-.92604 6.35-.79375 10.12-1.9182 3.4396-11.652 8.9386-21.828 9.8557-6.3341.57089-16.603-5.0932-17.793-9.525.92604-3.5057-.48637-7.8441.83655-11.482 0 0 .94939-1.4163 2.5369-1.6147z" fill="#fcf2d8" transform="translate(42.333 18.521)"/><g fill="none" stroke="#004339"><path d="M124.933 153.101s-1.3564 3.1337-11.506 5.8465m-13.985 3.695c13.657-1.6838 20.954-10.524 20.954-10.524m-30.776 1.2628c5.4256 5.7062 13.564 7.39 13.564 7.39" stroke-linecap="round" stroke-width=".26458"/><path d="M121.015 146.241c6.0629.0839 2.9328 2.4628 3.1667 7.7948.93544 1.6838.87932 2.8355.87932 2.8355m-7.3796-7.376c3.3208.88867 1.5276 2.8422 1.5743 3.8245-1.4499 3.4144-.31603 3.8083-.31603 3.8083 3.4611-.18709 4.2101 1.5696 4.2101 1.5696m-9.917-6.952c1.8709.23386 1.0316 5.5194 1.0316 5.5194-1.1693 1.2161-.72702 1.6519-.72702 1.6519 2.666.88867 3.3512 3.2857 3.3512 3.2857m-26.016-16.342c-3.9051.47005-1.9279 1.7381-2.4892 6.883-.04677 1.2161-.90569 1.3784-1.046 4.7928m6.3849-7.5668c-2.4789 0-.79364 2.5859-.46624 6.468 0 0-.93575 1.3683-1.1228 5.3439m6.0582-9.0204c-1.2628.37418.28577 3.8792.239 6.4516-.74836.70158-.39738 3.2672-1.099 5.0913m10.458-11c1.3564 1.0758.53769 7.0435.53769 7.0435s.58439 3.0364 1.9876 4.1121m-7.3534-10.613c-1.8709.74835 2.0282 5.5421.85891 7.9742-1.3303.30985-.26099 3.7109-.26099 3.7109" stroke-width=".26458"/><path d="M89.958 142.871c2.1167 10.716 13.097 10.98 13.097 10.98 8.6651-.26458 19.711-5.0734 18.653-10.98 5.1594 1.1245 5.2917 2.6458 5.2917 2.6458.59531 5.2255-.92604 6.35-.79375 10.12-1.9182 3.4396-11.652 8.9386-21.828 9.8557-6.3341.57089-16.603-5.0932-17.793-9.525.92604-3.5057-.48637-7.8441.83655-11.482 0 0 .94939-1.4163 2.5369-1.6147z" stroke-linecap="round" stroke-linejoin="round" stroke-width=".39687"/></g><g fill="url(#j)" stroke="#004339" stroke-width=".39687" transform="translate(42.333 18.521)"><path d="M83.873 137.12c3.4396 11.046 8.2143 15.017 10.066 27.651-.12025 6.2105-1.8387 10.714-1.8387 10.714l-57.199-.14647s-1.7185-4.4939-1.8387-10.704c1.8521-12.634 6.6248-16.468 11.189-27.183 0 0-1.9182 18.653 19.248 34.528 21.167-15.875 20.373-34.859 20.373-34.859z"/><path d="M63.5 171.98s-14.751-18.19-19.248-34.528c0 0-5.0382 5.0296-9.8557 8.0698 5.2917 15.875 29.104 26.458 29.104 26.458s15.875-18.521 20.373-34.859c0 0 3.9137 5.3603 8.7312 8.4005-5.2917 15.875-29.104 26.458-29.104 26.458"/></g><g stroke="#004339" stroke-linecap="round" stroke-linejoin="round"><g fill="#fef7f2" stroke-width=".39687"><path d="M73.289 106.891c-2.1828-2.712-3.9688-2.1167-3.9688-2.1167s-2.8773.42995-3.9687 3.175c0 0-1.3229 4.4979 3.9687 10.319 0 0 4.5112 5.1821 5.8208 5.5562l4.2333 1.0583M138.377 106.891c2.1828-2.712 3.9688-2.1167 3.9688-2.1167s2.8773.42995 3.9687 3.175c0 0 1.3229 4.4979-3.9687 10.319 0 0-4.5112 5.1821-5.8208 5.5562l-4.2333 1.0583"/><path d="M120.385 60.854c13.3 11.637 17.06 26.82 17.895 36.509l1.4199 1.0616-2.3812 1.8521 2.2279 1.0656-2.1717 1.5547 2.1783 1.1597-2.2545 1.4597 1.0783 1.3749-4.7625 14.817c-5.2917 15.875-27.781 21.167-27.781 21.167s-22.49-5.2917-27.781-21.167l-4.7625-14.817 1.0783-1.3749-2.2545-1.4597 2.1783-1.1597-2.1717-1.5547 2.2279-1.0656-2.3812-1.8521 1.4199-1.0616c.83512-9.6891 4.5949-24.872 17.895-36.509 9.2604-2.6458 19.844-2.6458 29.104 0"/></g><path d="M104.57 116.678c.20453 2.9139-.58922 5.0306-.58922 5.0306" fill="none" stroke-width=".21167"/></g><g id="mouth"><path d="M101.6 130.44s1.5875.79375 4.2333.79375 4.2333-.79375 4.2333-.79375" fill="none" stroke="#004339" stroke-linecap="round" stroke-linejoin="round" stroke-width=".21167" id="mouth_close"/><g id="mouth_open"><path d="M101.6 129.38s1.5875-.79375 4.2333-.79375 4.2333.79375 4.2333.79375.00001 5.5569-4.2333 5.5569c-4.2333 0-4.2333-5.5569-4.2333-5.5569z" fill="#ef9a9a" transform="translate(0 -.1269)"/><path transform="scale(.26458)" d="M400 485.52c-10 0-16 3-16 3s.0213 4.7751 1.7539 9.7695a15.357 10 0 0 1 14.246-6.2871 15.357 10 0 0 1 14.248 6.2812c1.7305-4.9923 1.752-9.7637 1.752-9.7637s-6-3-16-3z" fill="#a65f5f"/><path d="M101.6 129.2531s1.5875-.79375 4.2333-.79375 4.2333.79375 4.2333.79375.00001 5.5569-4.2333 5.5569c-4.2333 0-4.2333-5.5569-4.2333-5.5569z" fill="none" stroke="#004339" stroke-linecap="round" stroke-linejoin="round" stroke-width=".21167"/></g></g><g stroke-linecap="round" stroke-linejoin="round"><g clip-path="url(#t)" transform="matrix(-1.09 0 0 1.2523 180.88 20.819)"><path transform="scale(.26458)" d="M284.7 292.54l-.45803-69.924 83.231-.78441-.22566 70.384z" fill="#fff"/><g id="black_eye_right" transform="matrix(1.0865 0 0 .98427 -7.5022 .36143)"><ellipse cx="85.485" cy="67.805" rx="3.9688" ry="6.6146" fill="url(#d)" stroke="#004339" stroke-width=".79375"/><ellipse cx="85.361" cy="68.494" rx="1.0583" ry="2.1167" stroke-width=".26458"/><path transform="matrix(-.89537 -.44532 -.23748 .97139 170.6 -.053665)" d="M70.577 105.66a2.3041 1.6195 0 0 1-2.3041 1.6195 2.3041 1.6195 0 0 1-2.3041-1.6195 2.3041 1.6195 0 0 1 2.3041-1.6195 2.3041 1.6195 0 0 1 2.3041 1.6195zm-1.4018-5.976a2.0328 3.0889 17.871 0 1-2.9986 1.7512 2.0328 3.0889 17.871 0 1-.54016-3.8726 2.0328 3.0889 17.871 0 1 2.9986-1.7512 2.0328 3.0889 17.871 0 1 .54016 3.8726z" fill="#fff" filter="url(#r)"/></g></g><path d="M80.433 74.612c1.6207.74905 3.282.88383 5.0271 1.0583 1.6715.04646 3.0073-.4195 4.4979-1.0583" fill="none" stroke="#004339" stroke-width=".18117" transform="matrix(-1.09 0 0 1.2523 180.88 20.819)"/><path d="M79.549 64.25c3.5459-1.869 5.8517-2.1252 9.3913-2.4694 3.3778.08807 4.6588.85667 6.3529 2.7781-.33538 2.6495-1.1817 5.2522-2.4249 7.4083 3.8052-2.4124 4.3176-3.6934 5.4632-7.717l2.7621-.61737-4.1432-1.8521 3.5908-.92604-5.8005-.61736 2.4859-1.5434c-7.3378-.69045-12.851.86906-18.158 3.3752l-3.7069 2.7343 2.2537-.55331c-.92569 1.2054-1.4381 2.4864-2.2097 5.5562 1.7964-2.8136 2.3088-3.5822 4.1432-5.5562z" fill="#004339" transform="matrix(-1.09 0 0 1.2523 180.88 20.819)"/></g><g stroke-linecap="round" stroke-linejoin="round"><g clip-path="url(#s)" transform="matrix(1.09 0 0 1.2523 30.786134 20.81879127)"><path transform="scale(.26458)" d="M284.7 292.54l-.45803-69.924 83.231-.78441-.22566 70.384z" fill="#fff"/><g id="black_eye_left" transform="matrix(1.0865 0 0 .98427 -7.5022 .36143)"><ellipse cx="85.485" cy="67.805" rx="3.9688" ry="6.6146" fill="url(#d)" stroke="#004339" stroke-width=".79375"/><ellipse cx="85.361" cy="68.494" rx="1.0583" ry="2.1167" stroke-width=".26458"/><path transform="matrix(.89537 -.44532 .23748 .97139 0 0)" d="M70.577 105.66a2.3041 1.6195 0 0 1-2.3041 1.6195 2.3041 1.6195 0 0 1-2.3041-1.6195 2.3041 1.6195 0 0 1 2.3041-1.6195 2.3041 1.6195 0 0 1 2.3041 1.6195zm-1.4018-5.976a2.0328 3.0889 17.871 0 1-2.9986 1.7512 2.0328 3.0889 17.871 0 1-.54016-3.8726 2.0328 3.0889 17.871 0 1 2.9986-1.7512 2.0328 3.0889 17.871 0 1 .54016 3.8726z" fill="#fff" filter="url(#q)"/></g></g><path d="M80.433 74.612c1.6207.74905 3.282.88383 5.0271 1.0583 1.6715.04646 3.0073-.4195 4.4979-1.0583" fill="none" stroke="#004339" stroke-width=".18117" transform="matrix(1.09 0 0 1.2523 30.786134 20.81879127)"/><path d="M79.549 64.25c3.5459-1.869 5.8517-2.1252 9.3913-2.4694 3.3778.08807 4.6588.85667 6.3529 2.7781-.33538 2.6495-1.1817 5.2522-2.4249 7.4083 3.8052-2.4124 4.3176-3.6934 5.4632-7.717l2.7621-.61737-4.1432-1.8521 3.5908-.92604-5.8005-.61736 2.4859-1.5434c-7.3378-.69045-12.851.86906-18.158 3.3752l-3.7069 2.7343 2.2537-.55331c-.92569 1.2054-1.4381 2.4864-2.2097 5.5562 1.7964-2.8136 2.3088-3.5822 4.1432-5.5562z" fill="#004339" transform="matrix(1.09 0 0 1.2523 30.786134 20.81879127)"/></g><g><path d="M86.898 128.88l2.9707 1.7319c3.638 1.9844 3.7085-.31662 7.4127 2.1969 3.0427 13.163-1.9705 18.909-2.1028 27.111-.13229 8.7312 2.5238 16.574 2.5238 16.574l-23.76.0935s1.593-15.827 3.1805-24.228c.26458-5.7547-1.3096-9.0738-1.3096-9.0738z" fill="url(#k)" transform="matrix(1.15325 0 0 1.12988 33.986593 -.13780483)"/><path d="M89.475 154.51s-1.6318 11.942-9.2385 20.904l5.5755.11629s2.8693-5.3442 3.663-21.021zm2.5343-20.829s-2.6458 12.766-6.1846 18.752c-3.0096-3.2081-4.1097-7.9014-4.1097-7.9014.76068 15.61 4.1097 18.65 4.1097 18.65s4.1672-7.5737 6.1846-29.501z" fill="#68492e" fill-opacity=".44444" transform="matrix(1.15325 0 0 1.12988 33.986593 -.13780483)"/><path d="M81.715 144.53s.35114 13.384 3.3277 18.345m6.9666-29.196s-1.9417 30.043-11.773 41.734m9.2385-20.904s-.62033 14.737-3.663 21.021" fill="none" stroke="#004339" stroke-linecap="round" stroke-linejoin="round" stroke-width=".26458" transform="matrix(1.15325 0 0 1.12988 33.986593 -.13780483)"/><path d="M86.898 128.88l2.9707 1.7319c3.638 1.9844 3.7085-.31662 7.4127 2.1969 3.0427 13.163-1.9705 18.909-2.1028 27.111-.13229 8.7312 2.5238 16.574 2.5238 16.574l-23.76.0935s1.593-15.827 3.1805-24.228c.26458-5.7547-1.3096-9.0738-1.3096-9.0738z" fill="none" stroke="#004339" stroke-linecap="round" stroke-linejoin="round" stroke-width=".39687" transform="matrix(1.15325 0 0 1.12988 33.986593 -.13780483)"/><g><path d="M44.119 120.19s9.8596 3.2691 11.777 5.8416l4.3623 6.8584 9.6573-1.3891c6.813-4.4979 4.1672-7.1438 10.451-12.171 5.0071 2.0084 5.093 5.8186 12.237 9.6573 3.1337.98222-2.6672 5.3556-3.8365 8.8635-.70158 2.0112 1.7259 3.4822.46302 5.8208-9.5415 3.5079-12.37 10.712-25.466 15.015-5.3765-.11648-11.726-7.7349-19.05-12.7-1.4032-2.666-5.1948-5.1752-4.9609-9.525.93544-5.6127 2.7767-2.1698 3.5719-7.4083 0 0-1.6384-4.5605.79375-8.8635z" fill="url(#l)" transform="matrix(1.3055 0 0 1.1292 20.88018241 -.03598486)"/><path transform="matrix(.3454 0 0 .2988 20.88018241 -.03598486)" d="M170.7 456.05c-.8254 1.2837-.61671 3.0685-.6543 4.5815.23512 5.1296 4.4298 8.6638 6.7666 12.89 1.4997 2.8556 3.2973 5.6415 5.7988 7.7655 4.261 3.7526 10.192 4.3432 15.198 6.6456 2.8715 1.1592 3.2699 4.6229 4.4533 7.1012 3.1445 7.6301 6.405 15.301 11.051 22.161 2.8508 1.4209 6.223 1.1214 9.2221.27435 13.851-3.2924 26.766-9.8554 38.39-17.974.93633-.33602 1.0374-1.9829-.1983-1.7735-10.989 1.498-21.955 3.1531-32.938 4.6875-6.0496-8.8546-11.363-18.205-17.655-26.892-4.6079-4.745-10.762-7.5593-16.615-10.445-7.2871-3.3391-14.74-6.3214-22.274-9.0552l-.54492.0327zm159.7 24.489c-1.1534 1.053-.39018 2.9435-1.071 4.282-2.7094 9.0026-8.9573 16.39-14.917 23.451-15.273 16.934-32.965 32.376-53.971 41.778-6.3953 2.8324-13.472 4.9004-20.429 4.5784-9.4905-6.4959-20.595-9.9581-31-14.656-13.984-6.0803-28.746-12.192-38.811-24.128-3.2866-3.882-5.9051-8.5341-6.8107-13.61 0 0-4.0417.44489-1.8751 16.021-4.3332-1.5655-4.9969-7.5692-7.3666-7.804-4.0903 9.3905.78116 22.695 6.5397 29.549 3.1125 3.6804 5.8558 7.6617 8.8112 11.448 4.8806 4.112 10.298 7.5677 15.144 11.741 12.545 9.9748 24.312 21.038 37.863 29.676 5.5892 3.244 11.65 6.2904 18.2 6.6823 15.961-5.1031 21.306-7.0661 36.619-17.145 17.331-13.435 45.919-39.724 53.057-56.77l6.4005-7.4351c2.1926-7.0749 5.5209-9.0098 9.7484-14.948 2.0245-2.9815 4.6893-5.7578 5.8319-9.1793-3.3063-4.3978-8.291-1.8344-12.806-4.586-2.8234-1.399-6.1272-7.2201-8.7298-8.9609l-.35333.0126zm-55.159 13.332c-14.272 13.841-33.115 24.112-48.461 27.044 6.7809 3.6615 10.363 4.7126 16.146 6.141 1.0789.20865 1.2043.7374 2.3275.31478 9.4963-3.7653 16.581-9.7226 23.492-17.816 4.5625-5.0625 6.4958-15.684 6.4958-15.684zm26.137-13.001s.8292 1.9148 1.2667 8.1648c1.0306 18.325-39.533 49.679-53.033 58.867 31.5-26.625 51.641-54.656 51.766-67.031zm-135.56 10.109c-9.8995 28.991 53.033 45.608 73.186 59.397-8.1412-23.832-57.182-32.971-73.186-59.397z" fill="#68492e" fill-opacity=".44444"/><path d="M80.074 129.39c.60804 5.3788-14.032 15.575-14.032 15.575m-1.1532-5.4323c2.4789-.74835 6.2156-4.7137 6.2156-4.7137m-24.164-9.315c1.7306 3.7886 5.4726 2.5342 6.1742 4.3583 0 0 2.666 7.811 5.4256 8.9803l7.1561 3.2273m21.122-15.835c3.6031 2.977-14.119 21.194-23.349 20.508-3.8734-3.1879-19.002-5.8928-20.252-14.032m26.699-1.2147s-5.5109 4.4888-12.246 5.658m16.886 6.5301s-4.7716 4.8823-11.039 6.7064m23.862-11.354s-2.1828 5.8208-10.583 11.708m-29.981-11.692s9.3488 9.5984 16.696 13.172c1.6848-.21004 4.6801-2.5313 4.6801-2.5313" fill="none" stroke="#004339" stroke-linecap="round" stroke-linejoin="round" stroke-width=".26455" transform="matrix(1.3055 0 0 1.1292 20.88018241 -.03598486)"/><path d="M44.119 120.19s9.8596 3.2691 11.777 5.8416l4.3623 6.8584 9.6573-1.3891c6.813-4.4979 4.1672-7.1438 10.451-12.171 5.0071 2.0084 5.093 5.8186 12.237 9.6573 3.1337.98222-2.6672 5.3556-3.8365 8.8635-.70158 2.0112 1.7259 3.4822.46302 5.8208-9.5415 3.5079-12.37 10.712-25.466 15.015-5.3765-.11648-11.726-7.7349-19.05-12.7-1.4032-2.666-5.1948-5.1752-4.9609-9.525.93544-5.6127 2.7767-2.1698 3.5719-7.4083 0 0-1.6384-4.5605.79375-8.8635z" fill="none" stroke="#004339" stroke-linecap="round" stroke-linejoin="round" stroke-width=".39687" transform="matrix(1.3055 0 0 1.1292 20.88018241 -.03598486)"/></g></g><g transform="matrix(1.2713 -.02972 .02972 1.2713 28.52 8.072)" stroke="#004339"><path d="M37.162 44.154l3.6702 8.0638 2.0792-2.6622-4.3691-6.3064z" fill="url(#p)" stroke-linejoin="bevel" stroke-miterlimit="1" stroke-width=".39686"/><path d="M31.927 38.067l3.1215-2.046 2.3297 5.5444 5.843-1.4238.21117 3.7263-5.9665-.75461-1.6884 5.7722-3.3327-1.6803 3.6368-4.7898z" fill="url(#g)" stroke-width=".42964"/><circle cx="36.976" cy="42.364" r="1.7991" fill="url(#h)" stroke-miterlimit="30" stroke-width=".42964"/></g><g transform="translate(43.6559 44.979)" fill="url(#b)" stroke="#004339" stroke-miterlimit="30" stroke-width=".39687"><g stroke="none"><path d="M24.227 26.111c-2.6458 34.396-12.435 49.212-12.435 49.212s2.249-39.688-3.0427-58.208c1.7859-4.7625 5.8208-9.3266 5.8208-9.3266" fill="url(#c)"/><path d="M14.112 46.059c.43092-4.3958-.59726-12.496-.59726-12.496s3.1938 9.4891 3.9649 21.757c5.5042-12.386 6.7471-29.209 6.7471-29.209-2.6458 34.396-12.435 49.212-12.435 49.212s2.249-39.688-3.0427-58.208c0 0 4.8022 20.525 5.3635 28.944z" fill="#013733" fill-opacity=".5098"/><path d="M9.988 17.926c1.7198 3.0427 2.9104 14.883 2.9104 14.883l.46302-3.5057s3.9026 11.906 4.2333 21.63c3.1628-22.836-5.0303-26.801-2.3812-41.54z" fill="#c9f3ef" fill-opacity=".75845"/></g><path d="M24.227 26.111c-2.6458 34.396-12.435 49.212-12.435 49.212s2.249-39.688-3.0427-58.208c1.7859-4.7625 5.8208-9.3266 5.8208-9.3266" fill="none"/><g><g stroke="none"><path d="M34.925 25.669c-4.7831 18.172-3.0969 50.717 3.3171 73.856-5.8307-11.419-12.313-25.971-12.313-25.971-5.5562-13.097-7.9375-34.396-5.2917-50.271" fill="url(#c)"/><path d="M34.925 25.669c-4.7831 18.172-3.0969 50.717 3.3171 73.856-5.8307-11.419-12.313-25.971-12.313-25.971-5.5562-13.097-7.9375-34.396-5.2917-50.271 0 0-2.8774 21.933 4.7933 41.484-1.9278-7.1946-1.4032-17.493-1.4032-17.493s1.6286 14.018 5.8381 22.718c0 0-1.5823-23.837 5.0593-44.323z" fill="#013733" fill-opacity=".5098"/><path d="M21.431 45.971s-2.1828-15.478-.13229-22.688c2.9104 8.599 7.0115 10.649 8.0698 14.751 0 0 1.1245-6.1516 4.5641-11.774-3.8365 8.7974-4.4979 28.112-4.4979 28.112-1.0583-6.0854-6.2177-10.054-6.7469-16.206-1.0583 1.1245-1.2568 7.8052-1.2568 7.8052z" fill="#c9f3ef" fill-opacity=".75845"/></g><path d="M34.925 25.669c-4.7831 18.172-3.0969 50.717 3.3171 73.856-5.8307-11.419-12.313-25.971-12.313-25.971-5.5562-13.097-7.9375-34.396-5.2917-50.271" fill="none"/></g></g><g transform="translate(43.6559 44.979)" fill="url(#b)" stroke="#004339" stroke-miterlimit="30" stroke-width=".39687"><g stroke="none"><path d="M87.71 13.841s4.2823 50.554-1.9011 67.8c10.78-21.067 7.1925-67.751 7.1925-67.751" fill="url(#c)"/><path d="M87.71 13.841s4.2823 50.554-1.9011 67.8c10.78-21.067 7.1925-67.751 7.1925-67.751 2.1515 37.511-4.1472 57.144-4.1472 57.144s3.533-13.789-1.1442-57.194z" fill="#013733" fill-opacity=".5098"/><path d="M92.88 39.321c.37418 5.2853-2.557 22.919-2.557 22.919s.61606-5.5466-.03875-11.908l.67751 2.6151s1.5441-6.7505 1.9182-13.626zm-.37805-24.787c.74836 8.8399.60804 19.878.60804 19.878s-1.9644-10.851-3.9756-16.277l-.28063 4.303-.56127-8.2787c2.7128 4.4901 4.116 9.3544 4.116 9.3544z" fill="#c9f3ef" fill-opacity=".75686"/></g><path d="M87.71 13.841s4.2823 50.554-1.9011 67.8c10.78-21.067 7.1925-67.751 7.1925-67.751" fill="none"/><g><g stroke="none"><path d="M81.248 10.091c-2.5797 8.6651-3.1155 23.811 4.822 44.977 5.4522-17.545 2.9267-42.964 2.9267-42.964" fill="url(#e)"/><path d="M81.248 10.091c-2.5797 8.6651-3.1155 23.811 4.822 44.977 5.4522-17.545 2.9267-42.964 2.9267-42.964s.93443 16.934-2.3197 35.863c0 0-5.656-17.28-5.429-37.876z" fill="#013733" fill-opacity=".5098"/><path d="M88.526 12.476c1.0664 7.2827-.79513 18.709-.79513 18.709s.23248-6.3524-.56127-8.1384c.26458 2.6458-1.9625 6.3646-2.5578 11.524 0 0-3.6067-10.809-2.6807-23.311.7276 5.7547 2.5257 9.7286 2.5257 9.7286.79375-3.2411 3.9643-5.1518 4.0692-8.5125z" fill="#c9f3ef" fill-opacity=".75686"/></g><path d="M81.248 10.091c-2.5797 8.6651-3.1155 23.811 4.822 44.977 5.4522-17.545 2.9267-42.964 2.9267-42.964" fill="none"/></g></g><g stroke="#004339" stroke-miterlimit="30" stroke-width=".39687"><g fill="url(#b)" transform="translate(43.6559 44.979)"><g stroke="none"><path d="M87.452 7.4502c-.93544 8.3254-2.7718 30.245-21.894 50.998 8.1384-16.464 9.781-37.756 10.556-56.838C81.3525-2.4122 85.2073.99542 87.452 7.45z" fill="url(#n)"/><path d="M87.452 7.4502c-.93544 8.3254-2.7718 30.245-21.894 50.998 8.1384-16.464 9.781-37.756 10.556-56.838 2.7128 27.034-4.4722 46.132-4.4722 46.132s12.817-21.303 15.811-40.292z" fill="#013733" fill-opacity=".5098"/><path d="M86.717 8.2021c-.52917 7.6729-7.0115 22.622-7.0115 22.622s-.06615-7.7391-1.4552-14.221l-1.3891 5.6224c.79375-2.9766.8599-12.039.06614-18.19 3.7703 4.7625 4.9609 16.206 4.9609 16.206s4.2995-7.2099 4.8286-12.039z" fill="#c9f3ef" fill-opacity=".75845"/></g><path d="M87.452 7.4502c-.93544 8.3254-2.7718 30.245-21.894 50.998 8.1384-16.464 9.781-37.756 10.556-56.838" fill="none"/></g><g fill="url(#b)" transform="translate(43.6559 44.979)"><g stroke="none"><path d="M44.391 10.824c-.000002 34.396 10.583 47.625 10.583 47.625-3.638-16.669-4.0944-33.674-2.4027-51.881" fill="url(#e)"/><path d="M44.391 10.824c-.000002 34.396 10.583 47.625 10.583 47.625-3.638-16.669-4.0944-33.674-2.4027-51.881-3.1805 24.415-1.2294 38.742-1.2294 38.742-2.3386-4.0224-3.3676-11.038-3.3676-11.038.28063 3.6482 1.029 7.0158 1.029 7.0158s-3.9578-11.475-4.6126-30.464z" fill="#013733" fill-opacity=".5098"/><path d="M45.262 10.979c-.8599 10.054 2.213 19.561 2.213 19.561s-.93739-7.5156-.34208-10.955l1.1225 4.3966s-1.0924-7.6496-.03405-12.28c-1.3891 2.249-1.629 4.5817-1.629 4.5817s-1.3304-3.3203-1.3304-5.3046z" fill="#c9f3ef" fill-opacity=".75686"/></g><path d="M44.391 10.824c-.000002 34.396 10.583 47.625 10.583 47.625-3.638-16.669-4.0944-33.674-2.4027-51.881" fill="none"/></g><g fill="url(#o)" transform="translate(43.6559 44.979)"><g stroke="none"><path d="M80.499-.19843c-3.4396-7.1437-18.124-7.7391-25.532.46302 0 0-5.2842 6.2265-5.2842 26.434 0 23.812 10.583 34.396 10.583 34.396s18.521-15.875 21.167-50.271c0-9.8331-.9335-11.022-.9335-11.022z" fill="url(#m)"/><path d="M54.197 42.205s-1.1644-4.6112-.92919-13.216c0 0 4.3488 13.986 8.605 20.394 6.6146-8.7974 14.467-31.35 14.467-31.35s-2.249 10.12-4.5641 16.933c6.9453-11.509 9.6577-24.143 9.6577-24.143-2.6458 34.396-21.167 50.271-21.167 50.271s-10.583-10.583-10.583-34.396c0 0 1.8012 8.8644 4.514 15.506z" fill="#013733" fill-opacity=".5098"/><path d="M50.734 26.855s.13229-15.179 3.7042-22.19c.39688 17.793 6.7923 26.099 6.7923 26.099s14.837-13.796 17.682-26.827c-.99219 10.12-4.4318 17.957-4.4318 17.957s.5611-3.6353.39688-5.9531c-3.2411 13.428-15.015 25.466-15.015 25.466s-6.0193-9.3266-6.4161-25.929c-2.8692 3.6033-2.712 11.377-2.712 11.377z" fill="#c9f3ef" fill-opacity=".75845"/></g><path d="M49.683 26.699c0 23.812 10.583 34.396 10.583 34.396S78.787 45.22 81.433 10.824" fill="none"/></g></g><g stroke="#004339" stroke-linecap="round" stroke-linejoin="round"><path d="M73.729 88.884c7.9967-3.2088 22.184 3.683 26.548 6.6761" fill="none" stroke-width=".39687"/></g><g stroke="#004339" stroke-linecap="round" stroke-linejoin="round"><path d="M137.937 88.884c-7.9967-3.2088-22.184 3.683-26.548 6.6761" fill="none" stroke-width=".39687"/></g></svg>